<?xml version="1.0" encoding="UTF-8" standalone="no"?><!DOCTYPE svg PUBLIC "-//W3C//DTD SVG 1.1//EN" "http://www.w3.org/Graphics/SVG/1.1/DTD/svg11.dtd"><svg width="100%" height="100%" viewBox="0 0 32 32" version="1.1" xmlns="http://www.w3.org/2000/svg" xmlns:xlink="http://www.w3.org/1999/xlink" xml:space="preserve" xmlns:serif="http://www.serif.com/" style="fill-rule:evenodd;clip-rule:evenodd;stroke-linecap:round;stroke-linejoin:round;stroke-miterlimit:1.5;"><rect id="bellhop" x="0" y="0" width="32" height="32" style="fill:none;"/><clipPath id="_clip1"><rect x="0" y="0" width="32" height="32"/></clipPath><g clip-path="url(#_clip1)"><g id="outline"><path d="M9,4c0,-1.104 3.137,-2 7,-2c3.863,0 7,0.896 7,2l0,3.305c0.929,-0.517 1.957,-0.87 3.043,-1.025c0.712,-0.102 1.317,-0.189 1.659,-0.237c0.197,-0.029 0.389,-0.089 0.568,-0.178c0.545,-0.273 1.73,-0.865 1.73,-0.865c0,0 0,2.441 0,4.78c0,2.605 -0.997,5.106 -2.78,6.994l1.78,2.226l-3,0l3,3l-3.461,0c-0.62,1.972 -1.845,3.73 -3.539,5c-0.963,0.723 -1.927,1.445 -2.667,2c-0.865,0.649 -1.918,1 -3,1c-0.22,0 -0.446,0 -0.666,0c-1.082,0 -2.135,-0.351 -3,-1c-0.74,-0.555 -1.704,-1.277 -2.667,-2c-1.694,-1.27 -2.919,-3.028 -3.539,-5l-3.461,0l3,-3l-3,0l1.78,-2.226c-1.783,-1.888 -2.78,-4.389 -2.78,-6.994c0,-2.339 0,-4.78 0,-4.78c0,0 1.185,0.592 1.73,0.865c0.179,0.089 0.371,0.149 0.568,0.178c0.342,0.048 0.947,0.135 1.659,0.237c1.086,0.155 2.114,0.508 3.043,1.025l0,-3.305Z" style="fill:none;stroke:#000;stroke-width:4px;"/></g><g id="emoji"><g><path d="M19,12c0,0 0.04,-0.099 0.108,-0.27c1.171,-2.926 3.815,-5.005 6.935,-5.45c0.712,-0.102 1.317,-0.189 1.659,-0.237c0.197,-0.029 0.389,-0.089 0.568,-0.178c0.545,-0.273 1.73,-0.865 1.73,-0.865c0,0 0,2.441 0,4.78c0,2.702 -1.073,5.293 -2.984,7.204c-1.505,1.505 -3.016,3.016 -3.016,3.016l-5,-8Z" style="fill:#e9b64d;"/><path d="M30,5c0,0 0,2.441 0,4.78c0,2.702 -1.073,5.293 -2.984,7.204l-3.016,3.016l-2,-7.21l2.495,-4.038l0.001,0l3.436,-2.151l2.068,-1.601Z" style="fill:#ba9665;"/><path d="M24,11c0,0 0.645,-0.43 1.336,-0.891c1.085,-0.723 2.36,-1.109 3.664,-1.109c0,0 0,0 0,0c0,0 -0.169,0.337 -0.368,0.735c-0.418,0.838 -0.97,1.603 -1.632,2.265c0,0 0,0 0,0l2,0c0,0 0,0 0,0c-0.315,0.944 -1.056,1.685 -2,2c0,0 0,0 0,0l1,1c0,0 0,0 0,0c-0.64,0.64 -1.509,1 -2.414,1c-0.778,0 -1.586,0 -1.586,0l0,-5Z" style="fill:#fef7ec;"/><path d="M27.5,6.071l0.202,-0.028c0.197,-0.029 0.389,-0.089 0.568,-0.178l1.73,-0.865l-1.068,1.601c-0.611,0.917 -1.45,1.658 -2.436,2.151c0,0 0,0 -0.001,0c-1.529,0.765 -2.495,2.328 -2.495,4.038l0,7.21l-5,-8c0,0 0.04,-0.099 0.108,-0.27c0.912,-2.28 2.718,-4.045 4.947,-4.924c0.814,0.385 0.832,0.381 0.832,0.381l0.613,-0.812c0.179,-0.038 0.361,-0.069 0.543,-0.095l0.327,-0.047c0.54,0.188 0.744,0.257 0.744,0.257l0,0l0.386,-0.419Z" style="fill:#e9b64d;"/><path d="M25.5,6.375l0,2.625c0,0 0,0 0,0c-0.766,-0.511 -1.282,-1.306 -1.445,-2.194c0.465,-0.184 0.948,-0.328 1.445,-0.431Zm2,-0.304l0,1.429c0,0 0,0 0,0c-0.486,-0.324 -0.871,-0.763 -1.13,-1.267l1.13,-0.162Z" style="fill:#c28e4d;"/></g><g><path d="M13,12c0,0 -0.04,-0.099 -0.108,-0.27c-1.171,-2.926 -3.815,-5.005 -6.935,-5.45c-0.712,-0.102 -1.317,-0.189 -1.659,-0.237c-0.197,-0.029 -0.389,-0.089 -0.568,-0.178c-0.545,-0.273 -1.73,-0.865 -1.73,-0.865c0,0 0,2.441 0,4.78c0,2.702 1.073,5.293 2.984,7.204c1.505,1.505 3.016,3.016 3.016,3.016l5,-8Z" style="fill:#e9b64d;"/><path d="M2,5c0,0 0,2.441 0,4.78c0,2.702 1.073,5.293 2.984,7.204l3.016,3.016l2,-7.21l-2.495,-4.038l-0.001,0l-3.436,-2.151l-2.068,-1.601Z" style="fill:#ba9665;"/><path d="M8,11c0,0 -0.645,-0.43 -1.336,-0.891c-1.085,-0.723 -2.36,-1.109 -3.664,-1.109c0,0 0,0 0,0c0,0 0.169,0.337 0.368,0.735c0.418,0.838 0.97,1.603 1.632,2.265c0,0 0,0 0,0l-2,0c0,0 0,0 0,0c0.315,0.944 1.056,1.685 2,2c0,0 0,0 0,0l-1,1c0,0 0,0 0,0c0.64,0.64 1.509,1 2.414,1c0.778,0 1.586,0 1.586,0l0,-5Z" style="fill:#fef7ec;"/><path d="M4.5,6.071l-0.202,-0.028c-0.197,-0.029 -0.389,-0.089 -0.568,-0.178l-1.73,-0.865l1.068,1.601c0.611,0.917 1.45,1.658 2.436,2.151c0,0 0,0 0.001,0c1.529,0.765 2.495,2.328 2.495,4.038l0,7.21l5,-8c0,0 -0.04,-0.099 -0.108,-0.27c-0.912,-2.28 -2.718,-4.045 -4.947,-4.924c-0.814,0.385 -0.832,0.381 -0.832,0.381l-0.613,-0.812c-0.179,-0.038 -0.361,-0.069 -0.543,-0.095l-0.327,-0.047c-0.54,0.188 -0.744,0.257 -0.744,0.257l0,0l-0.386,-0.419Z" style="fill:#e9b64d;"/><path d="M6.5,6.375l0,2.625c0,0 0,0 0,0c0.766,-0.511 1.282,-1.306 1.445,-2.194c-0.465,-0.184 -0.948,-0.328 -1.445,-0.431Zm-2,-0.304l0,1.429c0,0 0,0 0,0c0.486,-0.324 0.871,-0.763 1.13,-1.267l-1.13,-0.162Z" style="fill:#c28e4d;"/></g><g><path d="M7,14l-4,5l3,0l2,-2l-1,-3Z" style="fill:#e9b64d;"/><path d="M25,14l4,5l-3,0l-2,-2l1,-3Z" style="fill:#e9b64d;"/><path d="M9,9.292c1.646,-1.472 3.781,-2.292 6,-2.292c0.665,0 1.335,0 2,0c2.219,0 4.354,0.82 6,2.292l0.686,2.103l0.814,-0.37c0.971,1.464 1.5,3.192 1.5,4.975c0,1.03 0,2.05 0,3l-0.003,0.028c-0.694,0.482 -7.988,4.967 -7.997,4.972l-4,0c0,0 -7.555,-4.619 -7.997,-4.972l-0.003,-0.028c0,-0.95 0,-1.97 0,-3c0,-1.783 0.529,-3.511 1.5,-4.975l0.932,-0.039l0.568,-1.694Z" style="fill:#e9b64d;"/><path d="M6.003,19.028c0.712,-0.661 1.664,-1.028 2.654,-1.028c0.28,0 0.576,0 0.871,0c1.515,0 2.9,0.856 3.578,2.211c0.462,0.925 0.894,1.789 0.894,1.789l4,0c0,0 0.432,-0.864 0.894,-1.789c0.678,-1.355 2.063,-2.211 3.578,-2.211c0.295,0 0.591,0 0.871,0c0.99,0 1.942,0.367 2.654,1.028c-0.028,3.182 -1.506,6.103 -3.997,7.972c-0.963,0.723 -1.927,1.445 -2.667,2c-0.865,0.649 -1.918,1 -3,1c-0.22,0 -0.446,0 -0.666,0c-1.082,0 -2.135,-0.351 -3,-1c-0.74,-0.555 -1.704,-1.277 -2.667,-2c-2.491,-1.869 -3.969,-4.79 -3.997,-7.972Z" style="fill:#f4deb9;"/><path d="M21.123,8c0.544,0.281 1.061,0.617 1.542,1.006l-0.064,0.19c-0.378,1.135 -1.27,2.027 -2.405,2.405c-0.001,0.001 -0.001,0.001 -0.001,0.001c-0.786,0.262 -1.5,0.703 -2.086,1.289c-0.884,0.884 -2.109,2.109 -2.109,2.109l0,-3l-0.828,0.828c-0.057,0.057 -0.114,0.113 -0.172,0.168l0,0.004l-0.004,0c-0.735,0.7 -1.57,1.287 -2.478,1.741c-1.139,0.569 -2.518,1.259 -2.518,1.259l1,-3l0.091,-0.072c-0.373,-0.056 -0.74,-0.144 -1.098,-0.264c-0.872,-0.29 -1.993,-0.664 -1.993,-0.664l2,-2l4.75,0l1.25,-1l0,-1l5.123,0Z" style="fill:#d5a24d;"/><path d="M23,9.292c0.124,0.111 0.246,0.226 0.364,0.344c0.427,0.427 0.807,0.893 1.136,1.389l0,2.975c0,0 -0.671,-0.894 -1.115,-1.487c-0.25,-0.333 -0.385,-0.738 -0.385,-1.154l0,-2.067Zm-14,0l0,2.067c0,0.416 -0.135,0.821 -0.385,1.154c-0.444,0.593 -1.115,1.487 -1.115,1.487l0,-2.975c0.329,-0.496 0.709,-0.962 1.136,-1.389c0.118,-0.118 0.24,-0.233 0.364,-0.344Z" style="fill:#c28e4d;"/><path d="M21,11l-1,3l-2,-2l-2,5l-2,-5l-2,2l-1.5,-3" style="fill:none;stroke:#c28e4d;stroke-width:1.5px;stroke-linejoin:miter;stroke-miterlimit:3;"/><path d="M6,19l-3,3l4,0l1,-2l-2,-1Z" style="fill:#f4deb9;"/><path d="M26,19l3,3l-4,0l-1,-2l2,-1Z" style="fill:#f4deb9;"/></g><path d="M22.392,8c0.161,0 0.316,0.064 0.43,0.178c0.114,0.114 0.178,0.269 0.178,0.43c0,0 0,0 0,0.001c0,0.817 -0.557,1.53 -1.35,1.728c-0.407,0.102 -0.855,0.214 -1.265,0.317c-0.912,0.228 -1.765,0.65 -2.5,1.238c-1.474,1.179 -3.885,3.108 -3.885,3.108l0,-2.123c-1.107,0.851 -2.38,1.468 -3.744,1.809c-0.698,0.175 -1.256,0.314 -1.256,0.314l1.803,-3.005c-0.616,-0.024 -1.225,-0.136 -1.81,-0.331c-0.872,-0.29 -1.993,-0.664 -1.993,-0.664l3,-2l3,0l1,-1l8.392,0Z" style="fill:#fedf66;"/><g><path d="M9,4c0,-1.104 3.137,-2 7,-2c3.863,0 7,0.896 7,2l0,3l-1,1l-12,0l-1,-1l0,-3Z" style="fill:#8a131c;"/><path d="M9,9.572l0,-2.572l14,0l0,2.572c-1.903,-0.357 -4.342,-0.572 -7,-0.572c-2.658,0 -5.097,0.215 -7,0.572Z" style="fill:#464646;"/></g><path d="M12,16.5c0,-0.398 -0.158,-0.779 -0.439,-1.061c-0.282,-0.281 -0.663,-0.439 -1.061,-0.439c-0.398,0 -0.779,0.158 -1.061,0.439c-0.281,0.282 -0.439,0.663 -0.439,1.061c0,0.633 0,1.367 0,2c0,0.398 0.158,0.779 0.439,1.061c0.282,0.281 0.663,0.439 1.061,0.439c0.398,0 0.779,-0.158 1.061,-0.439c0.281,-0.282 0.439,-0.663 0.439,-1.061c0,-0.633 0,-1.367 0,-2Z"/><path d="M23,16.5c0,-0.398 -0.158,-0.779 -0.439,-1.061c-0.282,-0.281 -0.663,-0.439 -1.061,-0.439c-0.398,0 -0.779,0.158 -1.061,0.439c-0.281,0.282 -0.439,0.663 -0.439,1.061c0,0.633 0,1.367 0,2c0,0.398 0.158,0.779 0.439,1.061c0.282,0.281 0.663,0.439 1.061,0.439c0.398,0 0.779,-0.158 1.061,-0.439c0.281,-0.282 0.439,-0.663 0.439,-1.061c0,-0.633 0,-1.367 0,-2Z"/><path d="M14.702,21c-0.388,0 -0.702,0.314 -0.702,0.702c0,0.002 0,0.005 0,0.007c0,0.186 0.074,0.365 0.206,0.497c0.255,0.255 0.702,0.702 1.087,1.087c0.39,0.39 1.024,0.39 1.414,0c0.385,-0.385 0.832,-0.832 1.087,-1.087c0.132,-0.132 0.206,-0.311 0.206,-0.497c0,-0.002 0,-0.005 0,-0.007c0,-0.388 -0.314,-0.702 -0.702,-0.702c-0.73,0 -1.866,0 -2.596,0Z" style="fill:#714425;"/><path d="M10,23.5c0,0 0.693,1.039 1.263,1.894c0.46,0.691 1.236,1.106 2.066,1.106c0.114,0 0.228,0 0.342,0c0.83,0 1.606,-0.415 2.066,-1.106c0.15,-0.225 0.263,-0.394 0.263,-0.394c0,0 0.113,0.169 0.263,0.394c0.46,0.691 1.236,1.106 2.066,1.106c0.114,0 0.228,0 0.342,0c0.83,0 1.606,-0.415 2.066,-1.106c0.57,-0.855 1.263,-1.894 1.263,-1.894" style="fill:none;stroke:#b38b54;stroke-width:1.5px;"/></g></g></svg>